# xmcd CD database file
#
# Track frame offsets:
#	150
#	7950
#	40702
#	61841
#	83682
#	102445
#	136251
#	174854
#	214568
#	260965
#	292374
#	325471
#
# Disc length: 4461 seconds
#
# Revision: 0
# Processed by: cddbd v1.5.2PL0 Copyright (c) Steve Scherf et al.
# Submitted via: CDex 1.70beta1
#
DISCID=a8116b0c
DTITLE=Lenny Breau - Solo and Trio at Donte's [CD1/2)
DYEAR=2007
DGENRE=Jazz
TTITLE0=01 - Intro and Tuning
TTITLE1=02 - Secret Love
TTITLE2=03 - Noel's Theme
TTITLE3=04 - You Needed Me
TTITLE4=05 - Here's That Rainy Day
TTITLE5=06 - Visions
TTITLE6=07 - Green Dolphin Street
TTITLE7=08 - I Fall In Love So Easily
TTITLE8=09 - My Funny Valentine
TTITLE9=10 - I Love You
TTITLE10=11 - If You Could See Me Now
TTITLE11=12 - Blues #1
EXTD=YEAR: 2007
EXTT0=
EXTT1=
EXTT2=
EXTT3=
EXTT4=
EXTT5=
EXTT6=
EXTT7=
EXTT8=
EXTT9=
EXTT10=
EXTT11=
PLAYORDER=
